<svg width="56" height="62" viewBox="0 0 56 62" fill="none" xmlns="http://www.w3.org/2000/svg">
<g clip-path="url(#clip0_2005_7248)">
<path d="M47.7998 47.9567C58.7345 36.986 58.7345 19.1989 47.7998 8.22809C36.8651 -2.74266 19.1365 -2.74266 8.20182 8.22809C-2.73286 19.1989 -2.73286 36.986 8.20182 47.9567C19.1365 58.9275 36.8651 58.9275 47.7998 47.9567Z" fill="#FAE4D9"/>
<mask id="mask0_2005_7248" style="mask-type:luminance" maskUnits="userSpaceOnUse" x="0" y="0" width="56" height="57">
<path d="M28 56.1848C43.464 56.1848 56 43.6074 56 28.0924C56 12.5774 43.464 0 28 0C12.536 0 0 12.5774 0 28.0924C0 43.6074 12.536 56.1848 28 56.1848Z" fill="white"/>
</mask>
<g mask="url(#mask0_2005_7248)">
<path d="M28.5414 36.5474C24.9862 36.5474 22.1035 37.32 22.1035 38.2832C22.1035 39.2464 24.9862 40.0216 28.5414 40.0216C32.0965 40.0216 34.9766 39.249 34.9766 38.2832C34.9766 37.3175 32.0863 36.5474 28.5414 36.5474Z" fill="#000446"/>
<path d="M23.6693 30.7966C25.538 39.8954 23.6693 47.073 23.6693 47.073H33.4673C33.4673 47.073 32.094 38.345 33.4673 30.7966C33.9062 28.3783 23.1765 28.3886 23.6693 30.7966Z" fill="#FBAEA6"/>
<path d="M23.6693 30.7966C25.538 39.8954 23.6693 47.073 23.6693 47.073H33.4673C33.4673 47.073 32.094 38.345 33.4673 30.7966C33.9062 28.3783 23.1765 28.3886 23.6693 30.7966Z" fill="url(#paint0_linear_2005_7248)"/>
<path d="M28.2819 8.27216C22.2907 8.27216 17.3109 13.2607 16.6152 19.6374C18.0065 19.3798 19.4697 19.4545 20.8532 19.4648C22.9068 19.4803 24.8576 19.3309 26.9035 19.609C30.9181 20.1524 35.0303 20.0829 39.0681 19.8666L39.9691 19.8176C39.353 13.3611 34.3321 8.27216 28.2819 8.27216Z" fill="#C7776E"/>
<path d="M39.5023 21.3758C39.5023 15.1573 34.4778 10.1161 28.2797 10.1161C22.0817 10.1161 17.0571 15.1573 17.0571 21.3758V24.2267C17.0571 30.4452 22.0817 35.4863 28.2797 35.4863C34.4778 35.4863 39.5023 30.4452 39.5023 24.2267V21.3758Z" fill="#FBAEA6"/>
<path d="M35.0434 11.5739C32.6972 9.71443 29.4911 9.09891 26.5571 9.66808C23.6231 10.2372 20.9638 11.9215 18.9487 14.139C18.1787 15.0017 17.3342 16.2353 17.234 17.3994C17.1776 18.0664 17.9014 20.0006 18.9539 19.6864C19.3056 19.5808 19.724 18.548 19.9498 18.2441C20.3363 17.7294 20.7656 17.2487 21.2333 16.8071C22.3866 15.6945 23.7646 14.8433 25.274 14.311C26.7835 13.7788 28.3892 13.5779 29.9827 13.722C31.5762 13.866 33.1203 14.3516 34.5106 15.146C35.9009 15.9404 37.105 17.025 38.0415 18.3265C38.2802 18.6536 38.5241 19.0142 38.9014 19.1558C39.2788 19.2975 39.8153 19.058 39.7922 18.6536C38.578 16.0525 37.2894 13.3535 35.0434 11.5739Z" fill="#C7776E"/>
<g style="mix-blend-mode:color-burn">
<path d="M41.0295 19.5936C40.504 19.3212 39.9099 19.2112 39.3222 19.2775C38.7344 19.3439 38.1795 19.5836 37.7276 19.9663C37.2756 20.3491 36.9469 20.8577 36.7831 21.4279C36.6192 21.998 36.6276 22.6041 36.807 23.1695C36.9865 23.7349 37.3291 24.2343 37.7914 24.6043C38.2537 24.9744 38.815 25.1987 39.4043 25.2487C39.9936 25.2987 40.5845 25.1723 41.1023 24.8855C41.62 24.5986 42.0413 24.1641 42.3129 23.637C42.6765 22.9299 42.7456 22.107 42.5049 21.3489C42.2643 20.5908 41.7336 19.9595 41.0295 19.5936Z" fill="#E8E8E8"/>
</g>
<path d="M40.7214 18.7231C40.196 18.4504 39.6017 18.3402 39.0138 18.4064C38.4259 18.4726 37.8708 18.7123 37.4187 19.0951C36.9666 19.4779 36.6378 19.9866 36.474 20.5569C36.3101 21.1272 36.3185 21.7335 36.4981 22.299C36.6777 22.8645 37.0205 23.3639 37.483 23.7339C37.9456 24.104 38.5071 24.328 39.0966 24.3778C39.6861 24.4276 40.2771 24.3008 40.7948 24.0135C41.3125 23.7263 41.7336 23.2914 42.0049 22.7639C42.3684 22.0573 42.4373 21.2347 42.1967 20.477C41.956 19.7194 41.4254 19.0885 40.7214 18.7231Z" fill="#FBAEA6"/>
<g style="mix-blend-mode:color-burn">
<path d="M40.3285 20.2168C40.028 20.0605 39.6832 20.0118 39.3514 20.0788C39.0195 20.1457 38.7203 20.3244 38.5034 20.5851C38.8432 20.7722 39.0966 21.085 39.2098 21.4569C39.323 21.8288 39.2869 22.2303 39.1092 22.5759C39.0576 22.6679 38.9965 22.7542 38.927 22.8334L38.9578 22.854C39.308 23.0357 39.7159 23.0704 40.0916 22.9504C40.4673 22.8303 40.7802 22.5655 40.9612 22.2141C41.1423 21.8626 41.1769 21.4534 41.0572 21.0765C40.9376 20.6995 40.6736 20.3857 40.3234 20.204L40.3285 20.2168Z" fill="#919191"/>
</g>
<g style="mix-blend-mode:color-burn">
<path d="M15.4012 19.5936C14.8759 19.8661 14.4428 20.2888 14.1569 20.8082C13.871 21.3277 13.745 21.9205 13.7948 22.5118C13.8447 23.1031 14.0682 23.6662 14.4371 24.1301C14.806 24.5939 15.3036 24.9376 15.8672 25.1176C16.4307 25.2977 17.0348 25.3061 17.6031 25.1417C18.1714 24.9773 18.6784 24.6475 19.0598 24.1941C19.4413 23.7406 19.6802 23.1839 19.7464 22.5942C19.8125 22.0045 19.7028 21.4084 19.4313 20.8813C19.0666 20.1748 18.4374 19.6424 17.6818 19.4009C16.9262 19.1595 16.106 19.2288 15.4012 19.5936Z" fill="#E8E8E8"/>
</g>
<path d="M15.7142 18.7231C15.1889 18.9957 14.7558 19.4184 14.4699 19.9378C14.1839 20.4572 14.0579 21.0501 14.1078 21.6413C14.1577 22.2326 14.3812 22.7958 14.7501 23.2596C15.1189 23.7234 15.6166 24.0671 16.1802 24.2472C16.7437 24.4273 17.3478 24.4356 17.9161 24.2712C18.4844 24.1068 18.9913 23.7771 19.3728 23.3236C19.7543 22.8702 19.9932 22.3134 20.0594 21.7238C20.1255 21.1341 20.0158 20.538 19.7443 20.0108C19.564 19.6608 19.3167 19.3498 19.0166 19.0956C18.7164 18.8414 18.3693 18.6491 17.9951 18.5295C17.6209 18.4099 17.2268 18.3655 16.8355 18.3987C16.4441 18.4319 16.0631 18.5422 15.7142 18.7231Z" fill="#FBAEA6"/>
<g style="mix-blend-mode:color-burn">
<path d="M16.1072 20.2168C15.7569 20.3985 15.4929 20.7124 15.3733 21.0893C15.2537 21.4663 15.2882 21.8755 15.4693 22.2269C15.6504 22.5784 15.9632 22.8432 16.3389 22.9632C16.7146 23.0833 17.1225 23.0486 17.4728 22.8669L17.5036 22.8463C17.434 22.7671 17.3729 22.6808 17.3213 22.5888C17.1439 22.2429 17.1082 21.8411 17.2218 21.4692C17.3355 21.0973 17.5895 20.7846 17.9297 20.598C17.7143 20.3361 17.4164 20.1557 17.0851 20.0864C16.7538 20.0171 16.4089 20.0631 16.1072 20.2168Z" fill="#919191"/>
</g>
<path d="M31.596 10.4922C30.0892 9.12979 28.1384 8.14341 26.1131 8.2181C24.6704 8.27218 23.1329 8.83877 21.8417 8.18719C21.9165 8.31969 21.9592 8.46799 21.9663 8.6201C21.9735 8.77221 21.9448 8.92387 21.8828 9.06283C21.8252 9.20796 21.7446 9.34277 21.644 9.46201C21.4788 9.66124 21.2647 9.8139 21.0228 9.90498C20.34 10.1496 19.5879 9.97709 18.8872 9.80197C19.1037 10.2443 19.4666 10.5975 19.9139 10.8012C19.7684 10.9211 19.6158 11.032 19.457 11.1334C19.3466 11.2107 19.2311 11.2802 19.1156 11.3472C18.1021 11.9245 16.9411 12.188 15.7786 12.1044C16.4308 12.5339 17.1885 12.7746 17.9682 12.7997L17.8527 12.877C17.2294 13.2971 16.5455 13.6185 15.8248 13.8299C15.3232 13.9807 14.8068 14.0766 14.2847 14.1157C15.0547 15.1047 15.8248 16.1014 16.7874 16.8972C17.75 17.693 18.9308 18.2853 20.1758 18.3008C21.5131 18.3265 22.7683 17.7213 24.0005 17.2036C26.6578 16.0998 29.4507 15.3583 32.3045 14.9991C33.4647 14.8523 34.856 14.7622 34.05 13.3637C33.379 12.2893 32.5519 11.3215 31.596 10.4922Z" fill="#C7776E"/>
<g style="mix-blend-mode:color-burn">
<path d="M19.1284 11.3472L19.5289 11.4373C20.897 11.7567 22.3525 12.0683 23.6667 11.5429C22.2601 11.5069 20.8431 11.4682 19.4698 11.1334C19.3594 11.2107 19.2516 11.2802 19.1284 11.3472Z" fill="#919191"/>
</g>
<g style="mix-blend-mode:color-burn">
<path d="M18.9208 12.7611C18.5635 12.7758 18.2076 12.8145 17.8555 12.877C17.2323 13.2971 16.5483 13.6185 15.8276 13.8299C16.7389 13.9329 17.6733 13.9587 18.5871 14.0256C20.502 14.1673 22.5632 14.2832 24.1958 13.253C22.5093 13.8453 20.7074 12.7225 18.9208 12.7611Z" fill="#919191"/>
</g>
<g style="mix-blend-mode:color-burn">
<path d="M21.644 9.46199C22.8094 9.88178 23.9774 10.402 25.1864 10.2964C24.121 9.79436 23.0161 9.38175 21.8828 9.06281C21.8252 9.20794 21.7446 9.34275 21.644 9.46199Z" fill="#919191"/>
</g>
<path d="M32.746 18.8004C32.2126 18.6538 31.6537 18.6257 31.1083 18.718C30.7002 18.7777 30.2964 18.8637 29.8993 18.9755C29.856 18.9877 29.8156 19.0087 29.7808 19.0372C29.7459 19.0657 29.7172 19.1011 29.6965 19.1412C29.6758 19.1813 29.6635 19.2252 29.6604 19.2702C29.6574 19.3153 29.6635 19.3605 29.6786 19.403L29.7376 19.5601C29.7523 19.6019 29.7753 19.6402 29.8054 19.6726C29.8355 19.705 29.8719 19.7308 29.9124 19.7484C29.9528 19.7661 29.9965 19.7752 30.0406 19.7751C30.0848 19.7751 30.1284 19.7659 30.1688 19.7481C30.5167 19.5913 30.8742 19.4571 31.2392 19.3464C31.694 19.2009 32.1748 19.1561 32.6485 19.215C33.1314 19.3054 33.5836 19.5172 33.9628 19.8305C34.3628 20.1432 34.737 20.4877 35.0819 20.8607C34.7894 20.4327 34.4623 20.0296 34.1039 19.6554C33.7287 19.2622 33.2621 18.9684 32.746 18.8004Z" fill="#C7776E"/>
<path d="M26.067 19.1352C25.6774 18.9985 25.2796 18.8867 24.876 18.8004C24.3357 18.6806 23.7759 18.6806 23.2357 18.8004C22.7114 18.9362 22.2295 19.2018 21.8342 19.573C21.4555 19.928 21.1069 20.3139 20.792 20.7268C21.1557 20.3682 21.5481 20.04 21.9651 19.7456C22.3645 19.4658 22.8265 19.2889 23.3101 19.2305C23.7862 19.1997 24.2632 19.2718 24.7091 19.4417C25.0679 19.5712 25.4177 19.7244 25.7564 19.9001C25.7958 19.9198 25.8388 19.9312 25.8827 19.9337C25.9267 19.9362 25.9707 19.9296 26.012 19.9144C26.0534 19.8992 26.0912 19.8757 26.1231 19.8454C26.1551 19.815 26.1806 19.7784 26.1979 19.7378L26.2647 19.5807C26.2843 19.5389 26.2948 19.4932 26.2953 19.4469C26.2958 19.4007 26.2864 19.3548 26.2676 19.3125C26.2488 19.2702 26.2212 19.2325 26.1866 19.2019C26.152 19.1713 26.1112 19.1485 26.067 19.1352Z" fill="#C7776E"/>
<path d="M31.8835 27.6829C30.8535 27.4337 29.8055 27.2666 28.7493 27.1833C27.8226 27.1112 26.5674 26.9258 25.669 27.1833C23.8721 27.7216 25.6253 30.109 26.5905 30.57C27.0848 30.788 27.6193 30.8993 28.1592 30.8967C28.6992 30.894 29.2326 30.7774 29.7247 30.5545C30.7091 30.0984 31.5479 29.3771 32.1479 28.471C32.2711 28.2933 32.3892 28.0589 32.2737 27.8761C32.2245 27.8197 32.1647 27.7736 32.0978 27.7405C32.0308 27.7074 31.958 27.6878 31.8835 27.6829Z" fill="white"/>
<path d="M27.0297 26.4004C25.854 26.5163 23.7979 26.7584 22.8738 27.5825C22.2757 28.1156 22.4657 28.1774 23.1613 28.2366C23.2999 28.2366 25.7282 28.2135 25.7103 28.2366C25.7993 28.1411 25.9083 28.0667 26.0296 28.0187C26.1508 27.9708 26.2812 27.9505 26.4112 27.9594C26.5412 27.9683 26.6676 28.0061 26.7812 28.0701C26.8949 28.1341 26.9929 28.2226 27.0682 28.3294C27.0322 27.9817 27.4737 27.7628 27.8177 27.8297C28.1617 27.8967 28.4466 28.1285 28.7777 28.2366C29.1089 28.3448 29.5658 28.2572 29.6556 27.9173L31.2317 28.5019L30.975 27.9688L35.3388 28.5843C32.9285 26.8614 29.9724 26.0844 27.0297 26.4004Z" fill="#C7776E"/>
<g style="mix-blend-mode:color-burn">
<path d="M28.4363 25.1667C28.3634 25.19 28.2867 25.1987 28.2104 25.1925C28.0532 25.198 27.8958 25.1877 27.7407 25.1616C27.5967 25.1471 27.4593 25.0936 27.3431 25.007C27.227 24.9204 27.1364 24.8038 27.081 24.6697C27.0312 24.5386 27.015 24.397 27.0339 24.258C27.0527 24.119 27.106 23.9869 27.1888 23.8739C27.3428 23.6164 27.5738 23.3871 27.7484 23.0858C27.9127 22.7801 28.0008 22.439 28.005 22.0917C28.011 21.7637 27.9921 21.4357 27.9486 21.1105C27.8788 20.4658 27.7543 19.8282 27.5764 19.2047C27.6328 19.8511 27.6893 20.4924 27.7124 21.1285C27.7355 21.7647 27.7817 22.4162 27.4865 22.9313C27.3454 23.1888 27.1169 23.4232 26.9449 23.722C26.8438 23.875 26.7838 24.0518 26.7708 24.2349C26.7577 24.4181 26.7921 24.6016 26.8705 24.7676C26.952 24.9303 27.0774 25.0668 27.2324 25.1616C27.383 25.2507 27.5532 25.3011 27.7278 25.3084C27.8929 25.3121 28.0579 25.3001 28.2207 25.2723C28.3049 25.267 28.387 25.2442 28.462 25.2054C28.4996 25.1844 28.5314 25.1543 28.5544 25.1178C28.5696 25.1024 28.5781 25.0816 28.5781 25.0599C28.5781 25.0382 28.5696 25.0173 28.5544 25.0019C28.5954 25.0818 28.4928 25.1461 28.4363 25.1667Z" fill="#919191"/>
</g>
<path d="M24.9426 41.0646L4.17871 47.5804L17.8604 57.8433C22.8633 61.3742 35.9855 62.3451 40.9987 58.8271L51.3947 47.037L31.5549 41.6467L24.9426 41.0646Z" fill="#0A1775"/>
<path d="M22.1035 38.0927V42.9576H34.9766V38.0927L28.4977 41.5746L22.1035 38.0927Z" fill="#0A1775"/>
<path d="M29.2009 42.7129H27.8789C27.2835 42.7129 26.8008 43.1972 26.8008 43.7946V45.1209C26.8008 45.7183 27.2835 46.2025 27.8789 46.2025H29.2009C29.7963 46.2025 30.279 45.7183 30.279 45.1209V43.7946C30.279 43.1972 29.7963 42.7129 29.2009 42.7129Z" fill="#F9DD93"/>
<path d="M25.2842 48.2036L28.5673 62L31.7965 48.2036L28.5416 44.938L25.2842 48.2036Z" fill="#F9DD93"/>
<g style="mix-blend-mode:color-burn">
<path d="M23.5027 23.5211C24.6751 23.5211 25.6256 22.7439 25.6256 21.7853C25.6256 20.8266 24.6751 20.0494 23.5027 20.0494C22.3303 20.0494 21.3799 20.8266 21.3799 21.7853C21.3799 22.7439 22.3303 23.5211 23.5027 23.5211Z" fill="#919191"/>
</g>
<path d="M25.0863 20.6032C24.6851 20.278 24.1826 20.1048 23.6668 20.1139C23.2418 20.1099 22.8244 20.2269 22.4629 20.4512C22.2379 20.5755 22.0487 20.756 21.9137 20.9754C21.7788 21.1947 21.7027 21.4453 21.6929 21.7029C21.6929 22.5785 22.5708 23.2893 23.654 23.2893C24.7372 23.2893 25.6151 22.5785 25.6151 21.7029C25.6132 21.4918 25.5648 21.2838 25.4734 21.0937C25.382 20.9035 25.2498 20.7361 25.0863 20.6032Z" fill="white"/>
<path d="M24.5035 21.0435C24.6292 21.0435 24.9321 20.7242 25.0861 20.6083C24.6856 20.2812 24.183 20.1062 23.6666 20.1138C23.2416 20.1099 22.8242 20.2269 22.4627 20.4512C22.2969 20.6988 22.2076 20.9899 22.2061 21.2882C22.2061 21.7021 22.3699 22.0991 22.6617 22.3918C22.9534 22.6845 23.3491 22.8489 23.7616 22.8489C24.1742 22.8489 24.5698 22.6845 24.8616 22.3918C25.1533 22.0991 25.3172 21.7021 25.3172 21.2882C25.3172 21.2547 25.3172 21.2212 25.3172 21.1878C25.0502 21.1182 24.7781 21.077 24.5035 21.0435Z" fill="url(#paint1_linear_2005_7248)"/>
<g style="mix-blend-mode:color-burn">
<path d="M31.9246 20.0494C30.7515 20.0494 29.8018 20.8221 29.8018 21.7853C29.8018 22.7484 30.7515 23.5211 31.9246 23.5211C33.0977 23.5211 34.0474 22.7484 34.0474 21.7853C34.0474 20.8221 33.0977 20.0494 31.9246 20.0494Z" fill="#919191"/>
</g>
<path d="M32.9668 20.4512C32.6053 20.2269 32.1879 20.1099 31.7629 20.1139C31.2471 20.1048 30.7446 20.278 30.3434 20.6032C30.1782 20.7342 30.044 20.9003 29.9503 21.0896C29.8567 21.2788 29.806 21.4865 29.8018 21.6977C29.8018 22.5734 30.6796 23.2842 31.7629 23.2842C32.8461 23.2842 33.724 22.5734 33.724 21.6977C33.7146 21.4423 33.6401 21.1936 33.5075 20.9754C33.3749 20.7571 33.1887 20.5767 32.9668 20.4512Z" fill="white"/>
<path d="M31.7631 20.1139C31.2473 20.1048 30.7448 20.278 30.3436 20.6032C30.4976 20.7191 30.8005 21.0384 30.9263 21.0384C30.6516 21.0719 30.3795 21.1234 30.1074 21.1827C30.1074 21.2161 30.1074 21.2496 30.1074 21.2831C30.1074 21.697 30.2713 22.094 30.563 22.3867C30.8548 22.6794 31.2504 22.8438 31.663 22.8438C32.0755 22.8438 32.4712 22.6794 32.7629 22.3867C33.0546 22.094 33.2185 21.697 33.2185 21.2831C33.2208 20.9861 33.136 20.6951 32.9747 20.4461C32.6105 20.2221 32.1902 20.1069 31.7631 20.1139Z" fill="url(#paint2_linear_2005_7248)"/>
<path d="M35.6313 15.9185C36.1062 16.395 36.173 17.0749 36.1986 17.7213C36.2722 19.5859 36.3458 21.4488 36.4194 23.3099C36.4106 23.6787 36.4751 24.0456 36.6093 24.389C36.6811 24.5599 36.802 24.7055 36.9565 24.8073C37.111 24.9091 37.2921 24.9625 37.477 24.9607C37.15 23.9285 37.0495 22.8374 37.1824 21.7625C37.3153 20.6876 37.6785 19.6542 38.247 18.7334C38.3875 18.5598 38.4764 18.3501 38.5037 18.1282C38.4937 17.9612 38.4407 17.7997 38.3497 17.6595C37.8774 16.8637 36.6273 15.7331 35.6313 15.9185Z" fill="#C7776E"/>
<path d="M17.868 17.6595C17.7763 17.7995 17.7223 17.961 17.7114 18.1282C17.7387 18.3501 17.8277 18.5598 17.9681 18.7334C18.536 19.6545 18.8988 20.6878 19.0317 21.7626C19.1646 22.8374 19.0645 23.9284 18.7382 24.9607C18.9218 24.9597 19.101 24.9041 19.2531 24.8009C19.4052 24.6978 19.5235 24.5518 19.593 24.3813C19.7223 24.0369 19.7808 23.6698 19.765 23.3022C19.8385 21.4393 19.9121 19.5764 19.9857 17.7136C20.0114 17.0749 20.0807 16.395 20.553 15.9108C19.5673 15.7331 18.3198 16.8637 17.868 17.6595Z" fill="#C7776E"/>
</g>
</g>
<defs>
<linearGradient id="paint0_linear_2005_7248" x1="28.7647" y1="32.7023" x2="28.421" y2="42.9704" gradientUnits="userSpaceOnUse">
<stop stop-color="#FF6A59"/>
<stop offset="1" stop-color="white" stop-opacity="0"/>
</linearGradient>
<linearGradient id="paint1_linear_2005_7248" x1="24.1723" y1="20.7886" x2="20.8991" y2="24.9142" gradientUnits="userSpaceOnUse">
<stop stop-color="#2EBAC4"/>
<stop offset="0.19" stop-color="#3099B0"/>
<stop offset="0.39" stop-color="#317D9F"/>
<stop offset="0.59" stop-color="#326A94"/>
<stop offset="0.79" stop-color="#335E8C"/>
<stop offset="1" stop-color="#335A8A"/>
</linearGradient>
<linearGradient id="paint2_linear_2005_7248" x1="32.1481" y1="20.7474" x2="28.7383" y2="25.0451" gradientUnits="userSpaceOnUse">
<stop stop-color="#2EBAC4"/>
<stop offset="0.19" stop-color="#3099B0"/>
<stop offset="0.39" stop-color="#317D9F"/>
<stop offset="0.59" stop-color="#326A94"/>
<stop offset="0.79" stop-color="#335E8C"/>
<stop offset="1" stop-color="#335A8A"/>
</linearGradient>
<clipPath id="clip0_2005_7248">
<rect width="56" height="62" fill="white"/>
</clipPath>
</defs>
</svg>
