<svg width="100" height="100" viewBox="0 0 100 100" fill="none" xmlns="http://www.w3.org/2000/svg">
<path d="M23.333 10H10V23.333H16.667V16.667H23.333V10Z" fill="black"/>
<path d="M10 76.666V90H23.333V83.334H16.667V76.666H10Z" fill="black"/>
<path d="M76.667 90H90V76.666H83.333V83.334H76.667V90Z" fill="black"/>
<path d="M90 23.333V10H76.667V16.667H83.333V23.333H90Z" fill="black"/>
<path d="M12.6153 49.168C11.3833 49.168 10.2793 48.968 9.30325 48.568C8.32725 48.168 7.54325 47.576 6.95125 46.792C6.37525 46.008 6.07125 45.064 6.03925 43.96H10.4073C10.4713 44.584 10.6873 45.064 11.0553 45.4C11.4233 45.72 11.9033 45.88 12.4953 45.88C13.1033 45.88 13.5833 45.744 13.9353 45.472C14.2873 45.184 14.4633 44.792 14.4633 44.296C14.4633 43.88 14.3193 43.536 14.0313 43.264C13.7593 42.992 13.4153 42.768 12.9993 42.592C12.5993 42.416 12.0233 42.216 11.2713 41.992C10.1833 41.656 9.29525 41.32 8.60725 40.984C7.91925 40.648 7.32725 40.152 6.83125 39.496C6.33525 38.84 6.08725 37.984 6.08725 36.928C6.08725 35.36 6.65525 34.136 7.79125 33.256C8.92725 32.36 10.4073 31.912 12.2313 31.912C14.0873 31.912 15.5833 32.36 16.7193 33.256C17.8553 34.136 18.4633 35.368 18.5433 36.952H14.1033C14.0713 36.408 13.8713 35.984 13.5033 35.68C13.1353 35.36 12.6633 35.2 12.0872 35.2C11.5913 35.2 11.1913 35.336 10.8873 35.608C10.5833 35.864 10.4313 36.24 10.4313 36.736C10.4313 37.28 10.6873 37.704 11.1992 38.008C11.7113 38.312 12.5113 38.64 13.5993 38.992C14.6873 39.36 15.5673 39.712 16.2393 40.048C16.9273 40.384 17.5193 40.872 18.0153 41.512C18.5113 42.152 18.7593 42.976 18.7593 43.984C18.7593 44.944 18.5113 45.816 18.0153 46.6C17.5353 47.384 16.8313 48.008 15.9033 48.472C14.9753 48.936 13.8793 49.168 12.6153 49.168ZM25.3889 35.44V38.848H30.8849V42.016H25.3889V45.712H31.6049V49H21.2849V32.152H31.6049V35.44H25.3889ZM33.5732 40.552C33.5732 38.888 33.9333 37.408 34.6533 36.112C35.3733 34.8 36.3733 33.784 37.6533 33.064C38.9493 32.328 40.4133 31.96 42.0453 31.96C44.0453 31.96 45.7573 32.488 47.1813 33.544C48.6053 34.6 49.5573 36.04 50.0373 37.864H45.5253C45.1893 37.16 44.7093 36.624 44.0853 36.256C43.4773 35.888 42.7813 35.704 41.9973 35.704C40.7333 35.704 39.7093 36.144 38.9253 37.024C38.1413 37.904 37.7493 39.08 37.7493 40.552C37.7493 42.024 38.1413 43.2 38.9253 44.08C39.7093 44.96 40.7333 45.4 41.9973 45.4C42.7813 45.4 43.4773 45.216 44.0853 44.848C44.7093 44.48 45.1893 43.944 45.5253 43.24H50.0373C49.5573 45.064 48.6053 46.504 47.1813 47.56C45.7573 48.6 44.0453 49.12 42.0453 49.12C40.4133 49.12 38.9493 48.76 37.6533 48.04C36.3733 47.304 35.3733 46.288 34.6533 44.992C33.9333 43.696 33.5732 42.216 33.5732 40.552ZM61.1425 49L57.6385 42.64H56.6545V49H52.5505V32.152H59.4385C60.7665 32.152 61.8945 32.384 62.8225 32.848C63.7665 33.312 64.4705 33.952 64.9345 34.768C65.3985 35.568 65.6305 36.464 65.6305 37.456C65.6305 38.576 65.3105 39.576 64.6705 40.456C64.0465 41.336 63.1185 41.96 61.8865 42.328L65.7745 49H61.1425ZM56.6545 39.736H59.1985C59.9505 39.736 60.5105 39.552 60.8785 39.184C61.2625 38.816 61.4545 38.296 61.4545 37.624C61.4545 36.984 61.2625 36.48 60.8785 36.112C60.5105 35.744 59.9505 35.56 59.1985 35.56H56.6545V39.736ZM72.3108 35.44V38.848H77.8068V42.016H72.3108V45.712H78.5268V49H68.2068V32.152H78.5268V35.44H72.3108ZM93.3111 32.152V35.44H88.8471V49H84.7431V35.44H80.2791V32.152H93.3111ZM35.0537 77.168C33.4697 77.168 32.0137 76.8 30.6857 76.064C29.3737 75.328 28.3257 74.304 27.5417 72.992C26.7737 71.664 26.3897 70.176 26.3897 68.528C26.3897 66.88 26.7737 65.4 27.5417 64.088C28.3257 62.776 29.3737 61.752 30.6857 61.016C32.0137 60.28 33.4697 59.912 35.0537 59.912C36.6377 59.912 38.0857 60.28 39.3977 61.016C40.7257 61.752 41.7657 62.776 42.5177 64.088C43.2857 65.4 43.6697 66.88 43.6697 68.528C43.6697 70.176 43.2857 71.664 42.5177 72.992C41.7497 74.304 40.7097 75.328 39.3977 76.064C38.0857 76.8 36.6377 77.168 35.0537 77.168ZM35.0537 73.424C36.3977 73.424 37.4697 72.976 38.2697 72.08C39.0857 71.184 39.4937 70 39.4937 68.528C39.4937 67.04 39.0857 65.856 38.2697 64.976C37.4697 64.08 36.3977 63.632 35.0537 63.632C33.6937 63.632 32.6057 64.072 31.7897 64.952C30.9897 65.832 30.5897 67.024 30.5897 68.528C30.5897 70.016 30.9897 71.208 31.7897 72.104C32.6057 72.984 33.6937 73.424 35.0537 73.424ZM45.2568 68.552C45.2568 66.888 45.6168 65.408 46.3368 64.112C47.0568 62.8 48.0568 61.784 49.3368 61.064C50.6328 60.328 52.0968 59.96 53.7288 59.96C55.7288 59.96 57.4408 60.488 58.8648 61.544C60.2888 62.6 61.2408 64.04 61.7208 65.864H57.2088C56.8728 65.16 56.3928 64.624 55.7688 64.256C55.1608 63.888 54.4648 63.704 53.6808 63.704C52.4168 63.704 51.3928 64.144 50.6088 65.024C49.8248 65.904 49.4328 67.08 49.4328 68.552C49.4328 70.024 49.8248 71.2 50.6088 72.08C51.3928 72.96 52.4168 73.4 53.6808 73.4C54.4648 73.4 55.1608 73.216 55.7688 72.848C56.3928 72.48 56.8728 71.944 57.2088 71.24H61.7208C61.2408 73.064 60.2888 74.504 58.8648 75.56C57.4408 76.6 55.7288 77.12 53.7288 77.12C52.0968 77.12 50.6328 76.76 49.3368 76.04C48.0568 75.304 47.0568 74.288 46.3368 72.992C45.6168 71.696 45.2568 70.216 45.2568 68.552ZM72.8261 77L69.3221 70.64H68.3381V77H64.2341V60.152H71.1221C72.4501 60.152 73.5781 60.384 74.5061 60.848C75.4501 61.312 76.1541 61.952 76.6181 62.768C77.0821 63.568 77.3141 64.464 77.3141 65.456C77.3141 66.576 76.9941 67.576 76.3541 68.456C75.7301 69.336 74.8021 69.96 73.5701 70.328L77.4581 77H72.8261ZM68.3381 67.736H70.8821C71.6341 67.736 72.1941 67.552 72.5621 67.184C72.9461 66.816 73.1381 66.296 73.1381 65.624C73.1381 64.984 72.9461 64.48 72.5621 64.112C72.1941 63.744 71.6341 63.56 70.8821 63.56H68.3381V67.736Z" fill="#1C1C1C"/>
</svg>
