<svg width="100" height="100" viewBox="0 0 100 100" fill="none" xmlns="http://www.w3.org/2000/svg">
<path d="M53.333 46.666C53.333 63.236 39.902 76.666 23.333 76.666H20V70H23.333C36.218 70 46.667 59.555 46.667 46.666V40C46.667 38.158 48.157 36.666 50 36.666C51.843 36.666 53.333 38.158 53.333 40V46.666Z" fill="black"/>
<path d="M80 46.666C80 64.059 72.146 79.605 59.812 90H48.206C63.206 81.371 73.333 65.215 73.333 46.666V40C73.333 27.115 62.884 16.667 50 16.667C37.116 16.667 26.667 27.115 26.667 40V46.666C26.667 48.51 25.176 50 23.333 50C21.491 50 20 48.51 20 46.666V40C20 23.431 33.431 10 50 10C66.565 10 80 23.431 80 40V46.666Z" fill="black"/>
<path d="M23.333 10H10V23.333H16.667V16.667H23.333V10Z" fill="black"/>
<path d="M10 76.666V90H23.333V83.334H16.667V76.666H10Z" fill="black"/>
<path d="M76.667 90H90V76.666H83.333V83.334H76.667V90Z" fill="black"/>
<path d="M90 23.333V10H76.667V16.667H83.333V23.333H90Z" fill="black"/>
<path d="M50 23.333C40.794 23.333 33.333 30.794 33.333 40V46.666C33.333 52.187 28.854 56.666 23.333 56.666H20V63.334H23.333C32.539 63.334 40 55.873 40 46.666V40C40 34.479 44.479 30 50 30C55.521 30 60 34.479 60 40V46.666C60 64.639 47.063 79.561 30 82.699V89.433C50.759 86.22 66.667 68.326 66.667 46.665V40C66.667 30.795 59.202 23.333 50 23.333Z" fill="black"/>
</svg>
