<svg width="50" height="51" viewBox="0 0 50 51" fill="none" xmlns="http://www.w3.org/2000/svg">
<path d="M25 16.9367C23.4004 16.9367 21.8208 17.3683 20.4326 18.1848C19.957 18.465 19.7979 19.0783 20.0781 19.5539C20.3589 20.0314 20.9717 20.1896 21.4473 19.9094C22.5278 19.2726 23.7564 18.9367 25 18.9367C28.8599 18.9367 32 22.0773 32 25.9367C32 27.8384 31.2352 29.5633 30 30.8262V29.9367C30 28.6135 29.4824 27.3586 28.5322 26.3947C28.2153 26.0822 27.8563 25.8353 27.4814 25.6197C27.8082 25.1394 28 24.5602 28 23.9367C28 22.2824 26.6543 20.9367 25 20.9367C23.3457 20.9367 22 22.2824 22 23.9367C22 24.561 22.1924 25.1408 22.52 25.6214C21.022 26.4861 20 28.0865 20 29.9367V30.8262C18.7648 29.5633 18 27.8384 18 25.9367C18 24.6936 18.3359 23.465 18.9717 22.384C19.2519 21.9084 19.0928 21.2951 18.6167 21.0148C18.1411 20.7355 17.5278 20.8928 17.2481 21.3703C16.4316 22.758 16 24.3371 16 25.9367C16 30.8996 20.0376 34.9367 25 34.9367C29.9624 34.9367 34 30.8996 34 25.9367C34 20.9738 29.9624 16.9367 25 16.9367ZM24 23.9367C24 23.3849 24.4487 22.9367 25 22.9367C25.5513 22.9367 26 23.3849 26 23.9367C26 24.4885 25.5513 24.9367 25 24.9367C24.4487 24.9367 24 24.4885 24 23.9367ZM22 32.2516V29.9367C22 28.2824 23.3457 26.9367 25 26.9367C25.7954 26.9367 26.5513 27.2502 27.1177 27.8088C27.6865 28.3859 28 29.1418 28 29.9367V32.2516C27.0892 32.6861 26.0745 32.9367 25 32.9367C23.9255 32.9367 22.9108 32.6861 22 32.2516Z" fill="black"/>
<path d="M37 44.9367C36.5383 44.9367 36.1058 45.0502 35.7147 45.2373L33.707 43.2297C33.3164 42.8391 32.6836 42.8391 32.293 43.2297C31.9023 43.6203 31.9023 44.2531 32.293 44.6437L34.3006 46.6514C34.1135 47.0425 34 47.475 34 47.9367C34 49.591 35.3457 50.9367 37 50.9367C38.6543 50.9367 40 49.591 40 47.9367C40 46.2824 38.6543 44.9367 37 44.9367ZM37 48.9367C36.4487 48.9367 36 48.4885 36 47.9367C36 47.6657 36.1102 47.4212 36.2857 47.241C36.2891 47.2377 36.2936 47.2369 36.2969 47.2336C36.3002 47.2303 36.301 47.2257 36.3043 47.2223C36.4846 47.0469 36.7292 46.9367 37 46.9367C37.5513 46.9367 38 47.3849 38 47.9367C38 48.4885 37.5513 48.9367 37 48.9367Z" fill="black"/>
<path d="M44.18 26.9367C44.6 28.0967 45.7 28.9367 47 28.9367C48.65 28.9367 50 27.5867 50 25.9367C50 24.2867 48.65 22.9367 47 22.9367C45.7 22.9367 44.6 23.7767 44.18 24.9367H38V22.9367H41C41.55 22.9367 42 22.4867 42 21.9367C42 21.3867 41.55 20.9367 41 20.9367H38V18.9367H43C43.27 18.9367 43.52 18.8267 43.71 18.6467L45.72 16.6367C46.11 16.8267 46.54 16.9367 47 16.9367C48.65 16.9367 50 15.5867 50 13.9367C50 12.2867 48.65 10.9367 47 10.9367C45.35 10.9367 44 12.2867 44 13.9367C44 14.3967 44.11 14.8367 44.3 15.2267L42.59 16.9367H38V15.9367C38 14.2867 36.65 12.9367 35 12.9367H34V8.34668L35.71 6.63672C36.1 6.82672 36.54 6.93671 37 6.93671C38.65 6.93671 40 5.58667 40 3.93671C40 2.28675 38.65 0.936707 37 0.936707C35.35 0.936707 34 2.28669 34 3.93671C34 4.39667 34.11 4.82672 34.3 5.21668L32.29 7.22669C32.11 7.41669 32 7.66669 32 7.93671V12.9367H30V9.93671C30 9.38672 29.55 8.93671 29 8.93671C28.45 8.93671 28 9.38672 28 9.93671V12.9367H26V6.75672C27.16 6.33668 28 5.2367 28 3.93671C28 2.28669 26.65 0.936707 25 0.936707C23.35 0.936707 22 2.28669 22 3.93671C22 5.2367 22.84 6.33667 24 6.75672V12.9367H22V9.93671C22 9.38672 21.55 8.93671 21 8.93671C20.45 8.93671 20 9.38672 20 9.93671V12.9367H18V7.93671C18 7.66669 17.89 7.41669 17.71 7.22669L15.7 5.22669C15.89 4.82673 16 4.39667 16 3.93671C16 2.28669 14.65 0.936707 13 0.936707C11.35 0.936707 10 2.28669 10 3.93671C10 5.58673 11.35 6.93671 13 6.93671C13.46 6.93671 13.89 6.82672 14.29 6.63672L16 8.34668V12.9367H15C13.35 12.9367 12 14.2867 12 15.9367V16.9367H7.40997L5.70001 15.2267C5.89001 14.8267 6 14.3967 6 13.9367C6 12.2867 4.65002 10.9367 3 10.9367C1.34998 10.9367 0 12.2867 0 13.9367C0 15.5867 1.34998 16.9367 3 16.9367C3.46002 16.9367 3.89001 16.8267 4.28998 16.6367L6.28998 18.6467C6.47998 18.8267 6.72998 18.9367 7 18.9367H12V20.9367H9C8.45001 20.9367 8 21.3867 8 21.9367C8 22.4867 8.45001 22.9367 9 22.9367H12V24.9367H5.82001C5.40003 23.7767 4.29999 22.9367 3 22.9367C1.34998 22.9367 0 24.2867 0 25.9367C0 27.5867 1.34998 28.9367 3 28.9367C4.29999 28.9367 5.40002 28.0967 5.82001 26.9367H12V28.9367H9C8.45001 28.9367 8 29.3867 8 29.9367C8 30.4867 8.45001 30.9367 9 30.9367H12V32.9367H7C6.72998 32.9367 6.47998 33.0467 6.28998 33.2267L4.28998 35.2367C3.89002 35.0467 3.46002 34.9367 3 34.9367C1.34998 34.9367 0 36.2867 0 37.9367C0 39.5867 1.34998 40.9367 3 40.9367C4.65002 40.9367 6 39.5867 6 37.9367C6 37.4767 5.89001 37.0467 5.70001 36.6467L7.40997 34.9367H12V35.9367C12 37.5867 13.35 38.9367 15 38.9367H16V43.5267L14.29 45.2367C13.89 45.0467 13.46 44.9367 13 44.9367C11.35 44.9367 10 46.2867 10 47.9367C10 49.5867 11.35 50.9367 13 50.9367C14.65 50.9367 16 49.5867 16 47.9367C16 47.4767 15.89 47.0467 15.7 46.6467L17.71 44.6467C17.89 44.4567 18 44.2067 18 43.9367V38.9367H20V41.9367C20 42.4867 20.45 42.9367 21 42.9367C21.55 42.9367 22 42.4867 22 41.9367V38.9367H24V45.1167C22.84 45.5367 22 46.6367 22 47.9367C22 49.5867 23.35 50.9367 25 50.9367C26.65 50.9367 28 49.5867 28 47.9367C28 46.6367 27.16 45.5367 26 45.1167V38.9367H28V41.9367C28 42.4867 28.45 42.9367 29 42.9367C29.55 42.9367 30 42.4867 30 41.9367V38.9367H32V39.9367C32 40.4867 32.45 40.9367 33 40.9367C33.55 40.9367 34 40.4867 34 39.9367V38.9367H35C36.65 38.9367 38 37.5867 38 35.9367V34.9367H42.59L44.3 36.6467C44.11 37.0467 44 37.4767 44 37.9367C44 39.5867 45.35 40.9367 47 40.9367C48.65 40.9367 50 39.5867 50 37.9367C50 36.2867 48.65 34.9367 47 34.9367C46.54 34.9367 46.11 35.0467 45.71 35.2367L43.71 33.2267C43.52 33.0467 43.27 32.9367 43 32.9367H38V30.9367H41C41.55 30.9367 42 30.4867 42 29.9367C42 29.3867 41.55 28.9367 41 28.9367H38V26.9367H44.18ZM47 24.9367C47.55 24.9367 48 25.3867 48 25.9367C48 26.4867 47.55 26.9367 47 26.9367C46.45 26.9367 46 26.4867 46 25.9367C46 25.3867 46.45 24.9367 47 24.9367ZM47 12.9367C47.55 12.9367 48 13.3867 48 13.9367C48 14.4867 47.55 14.9367 47 14.9367C46.74 14.9367 46.5 14.8267 46.32 14.6567C46.31 14.6567 46.31 14.6467 46.3 14.6367C46.29 14.6267 46.28 14.6267 46.28 14.6167C46.11 14.4367 46 14.1967 46 13.9367C46 13.3867 46.45 12.9367 47 12.9367ZM37 2.93671C37.55 2.93671 38 3.38672 38 3.93671C38 4.4867 37.55 4.93671 37 4.93671C36.4832 4.93671 36 4.47751 36 3.93671C36 3.38672 36.45 2.93671 37 2.93671ZM13.703 4.62982C13.5204 4.81562 13.2701 4.93671 13 4.93671C12.45 4.93671 12 4.4867 12 3.93671C12 3.38672 12.45 2.93671 13 2.93671C13.5499 2.93671 13.9999 3.38666 14 3.9366C14 4.19477 13.8852 4.44449 13.703 4.62982ZM3.70001 14.6467C3.52002 14.8267 3.27002 14.9367 3 14.9367C2.45001 14.9367 2 14.4867 2 13.9367C2 13.3867 2.44997 12.9367 2.99992 12.9367C3.54078 12.9367 4 13.3973 4 13.9367C4 14.2067 3.89001 14.4567 3.70001 14.6467ZM3 26.9367C2.45001 26.9367 2 26.4867 2 25.9367C2 25.3867 2.45001 24.9367 3 24.9367C3.54999 24.9367 4 25.3867 4 25.9367C4 26.4867 3.54999 26.9367 3 26.9367ZM3 38.9367C2.45001 38.9367 2 38.4867 2 37.9367C2 37.3867 2.45001 36.9367 3.00345 36.9367C3.55243 36.9386 4 37.393 4 37.9367C4 38.4867 3.54998 38.9367 3 38.9367ZM13 48.9367C12.45 48.9367 12 48.4867 12 47.9367C12 47.3868 12.45 46.9368 12.9999 46.9367C13.5134 46.9366 14 47.3749 14 47.9367C14 48.4867 13.55 48.9367 13 48.9367ZM25 2.93671C25.55 2.93671 26 3.38672 26 3.93671C26 4.4867 25.55 4.93671 25 4.93671C24.45 4.93671 24 4.4867 24 3.93671C24 3.38672 24.45 2.93671 25 2.93671ZM25 48.9367C24.45 48.9367 24 48.4867 24 47.9367C24 47.3867 24.45 46.9367 25 46.9367C25.55 46.9367 26 47.3867 26 47.9367C26 48.4867 25.55 48.9367 25 48.9367ZM36 35.9367C36 36.4867 35.55 36.9367 35 36.9367H15C14.45 36.9367 14 36.4867 14 35.9367V15.9367C14 15.3867 14.45 14.9367 15 14.9367H35C35.55 14.9367 36 15.3867 36 15.9367V35.9367ZM46.2886 37.2348C46.8424 36.7225 48 36.949 48 37.9367C48 38.4867 47.55 38.9367 47 38.9367C46.4502 38.9367 46.0004 38.4871 46 37.9374C45.9998 37.6305 46.1143 37.3961 46.2886 37.2348Z" fill="black"/>
</svg>
