<svg width="100" height="100" viewBox="0 0 100 100" fill="none" xmlns="http://www.w3.org/2000/svg">
<g filter="url(#filter0_d_2046_200)">
<path d="M23.333 10H10V23.333H16.667V16.667H23.333V10Z" fill="white"/>
<path d="M10 76.666V90H23.333V83.334H16.667V76.666H10Z" fill="white"/>
<path d="M76.667 90H90V76.666H83.333V83.334H76.667V90Z" fill="white"/>
<path d="M90 23.333V10H76.667V16.667H83.333V23.333H90Z" fill="white"/>
<path d="M18.6387 46.168C17.4067 46.168 16.3027 45.968 15.3267 45.568C14.3507 45.168 13.5667 44.576 12.9747 43.792C12.3987 43.008 12.0947 42.064 12.0627 40.96H16.4307C16.4947 41.584 16.7107 42.064 17.0787 42.4C17.4467 42.72 17.9267 42.88 18.5187 42.88C19.1267 42.88 19.6067 42.744 19.9587 42.472C20.3107 42.184 20.4867 41.792 20.4867 41.296C20.4867 40.88 20.3427 40.536 20.0547 40.264C19.7827 39.992 19.4387 39.768 19.0227 39.592C18.6227 39.416 18.0467 39.216 17.2947 38.992C16.2067 38.656 15.3187 38.32 14.6307 37.984C13.9427 37.648 13.3507 37.152 12.8547 36.496C12.3587 35.84 12.1107 34.984 12.1107 33.928C12.1107 32.36 12.6787 31.136 13.8147 30.256C14.9507 29.36 16.4307 28.912 18.2547 28.912C20.1107 28.912 21.6067 29.36 22.7427 30.256C23.8787 31.136 24.4867 32.368 24.5667 33.952H20.1267C20.0947 33.408 19.8947 32.984 19.5267 32.68C19.1587 32.36 18.6867 32.2 18.1107 32.2C17.6147 32.2 17.2147 32.336 16.9107 32.608C16.6067 32.864 16.4547 33.24 16.4547 33.736C16.4547 34.28 16.7107 34.704 17.2227 35.008C17.7347 35.312 18.5347 35.64 19.6227 35.992C20.7107 36.36 21.5907 36.712 22.2627 37.048C22.9507 37.384 23.5427 37.872 24.0387 38.512C24.5347 39.152 24.7827 39.976 24.7827 40.984C24.7827 41.944 24.5347 42.816 24.0387 43.6C23.5587 44.384 22.8547 45.008 21.9267 45.472C20.9987 45.936 19.9027 46.168 18.6387 46.168ZM39.9323 39.088C39.9323 39.472 39.9083 39.872 39.8603 40.288H30.5723C30.6363 41.12 30.9003 41.76 31.3643 42.208C31.8443 42.64 32.4283 42.856 33.1163 42.856C34.1403 42.856 34.8523 42.424 35.2523 41.56H39.6203C39.3963 42.44 38.9883 43.232 38.3963 43.936C37.8203 44.64 37.0923 45.192 36.2123 45.592C35.3323 45.992 34.3483 46.192 33.2603 46.192C31.9483 46.192 30.7803 45.912 29.7563 45.352C28.7323 44.792 27.9323 43.992 27.3563 42.952C26.7803 41.912 26.4923 40.696 26.4923 39.304C26.4923 37.912 26.7723 36.696 27.3323 35.656C27.9083 34.616 28.7083 33.816 29.7323 33.256C30.7563 32.696 31.9323 32.416 33.2603 32.416C34.5563 32.416 35.7083 32.688 36.7163 33.232C37.7243 33.776 38.5083 34.552 39.0683 35.56C39.6443 36.568 39.9323 37.744 39.9323 39.088ZM35.7323 38.008C35.7323 37.304 35.4923 36.744 35.0123 36.328C34.5323 35.912 33.9323 35.704 33.2123 35.704C32.5243 35.704 31.9403 35.904 31.4603 36.304C30.9963 36.704 30.7083 37.272 30.5963 38.008H35.7323ZM41.2814 39.304C41.2814 37.912 41.5614 36.696 42.1214 35.656C42.6974 34.616 43.4894 33.816 44.4974 33.256C45.5214 32.696 46.6894 32.416 48.0014 32.416C49.6814 32.416 51.0814 32.856 52.2014 33.736C53.3374 34.616 54.0814 35.856 54.4334 37.456H50.0654C49.6974 36.432 48.9854 35.92 47.9294 35.92C47.1774 35.92 46.5774 36.216 46.1294 36.808C45.6814 37.384 45.4574 38.216 45.4574 39.304C45.4574 40.392 45.6814 41.232 46.1294 41.824C46.5774 42.4 47.1774 42.688 47.9294 42.688C48.9854 42.688 49.6974 42.176 50.0654 41.152H54.4334C54.0814 42.72 53.3374 43.952 52.2014 44.848C51.0654 45.744 49.6654 46.192 48.0014 46.192C46.6894 46.192 45.5214 45.912 44.4974 45.352C43.4894 44.792 42.6974 43.992 42.1214 42.952C41.5614 41.912 41.2814 40.696 41.2814 39.304ZM60.7326 34.84C61.2126 34.104 61.8126 33.528 62.5326 33.112C63.2526 32.68 64.0526 32.464 64.9326 32.464V36.808H63.8046C62.7806 36.808 62.0126 37.032 61.5006 37.48C60.9886 37.912 60.7326 38.68 60.7326 39.784V46H56.6286V32.608H60.7326V34.84ZM79.5182 39.088C79.5182 39.472 79.4943 39.872 79.4463 40.288H70.1583C70.2223 41.12 70.4863 41.76 70.9503 42.208C71.4303 42.64 72.0143 42.856 72.7023 42.856C73.7263 42.856 74.4383 42.424 74.8383 41.56H79.2063C78.9823 42.44 78.5743 43.232 77.9823 43.936C77.4063 44.64 76.6783 45.192 75.7983 45.592C74.9183 45.992 73.9343 46.192 72.8463 46.192C71.5343 46.192 70.3663 45.912 69.3423 45.352C68.3183 44.792 67.5183 43.992 66.9423 42.952C66.3663 41.912 66.0783 40.696 66.0783 39.304C66.0783 37.912 66.3583 36.696 66.9183 35.656C67.4943 34.616 68.2943 33.816 69.3183 33.256C70.3423 32.696 71.5183 32.416 72.8463 32.416C74.1423 32.416 75.2943 32.688 76.3023 33.232C77.3103 33.776 78.0943 34.552 78.6543 35.56C79.2303 36.568 79.5182 37.744 79.5182 39.088ZM75.3183 38.008C75.3183 37.304 75.0783 36.744 74.5983 36.328C74.1183 35.912 73.5183 35.704 72.7983 35.704C72.1103 35.704 71.5263 35.904 71.0463 36.304C70.5823 36.704 70.2943 37.272 70.1823 38.008H75.3183ZM89.1473 42.52V46H87.0593C85.5713 46 84.4113 45.64 83.5793 44.92C82.7473 44.184 82.3313 42.992 82.3313 41.344V36.016H80.6993V32.608H82.3313V29.344H86.4353V32.608H89.1233V36.016H86.4353V41.392C86.4353 41.792 86.5313 42.08 86.7233 42.256C86.9153 42.432 87.2353 42.52 87.6833 42.52H89.1473ZM29.7026 71.024H23.4146L22.4066 74H18.1106L24.2066 57.152H28.9586L35.0546 74H30.7106L29.7026 71.024ZM28.6466 67.856L26.5586 61.688L24.4946 67.856H28.6466ZM41.0139 57.152V74H36.9099V57.152H41.0139ZM55.5699 72.016H51.3779L50.7059 74H47.8419L51.9059 62.768H55.0739L59.1379 74H56.2419L55.5699 72.016ZM54.8659 69.904L53.4739 65.792L52.0979 69.904H54.8659ZM59.8308 69.536C59.8308 68.608 60.0175 67.7973 60.3908 67.104C60.7748 66.4107 61.3028 65.8773 61.9748 65.504C62.6575 65.1307 63.4361 64.944 64.3108 64.944C65.4308 64.944 66.3641 65.2373 67.1108 65.824C67.8681 66.4107 68.3641 67.2373 68.5988 68.304H65.6868C65.4415 67.6213 64.9668 67.28 64.2628 67.28C63.7615 67.28 63.3615 67.4773 63.0628 67.872C62.7641 68.256 62.6148 68.8107 62.6148 69.536C62.6148 70.2613 62.7641 70.8213 63.0628 71.216C63.3615 71.6 63.7615 71.792 64.2628 71.792C64.9668 71.792 65.4415 71.4507 65.6868 70.768H68.5988C68.3641 71.8133 67.8681 72.6347 67.1108 73.232C66.3535 73.8293 65.4201 74.128 64.3108 74.128C63.4361 74.128 62.6575 73.9413 61.9748 73.568C61.3028 73.1947 60.7748 72.6613 60.3908 71.968C60.0175 71.2747 59.8308 70.464 59.8308 69.536ZM69.5183 69.536C69.5183 68.608 69.705 67.7973 70.0783 67.104C70.4623 66.4107 70.9903 65.8773 71.6623 65.504C72.345 65.1307 73.1236 64.944 73.9983 64.944C75.1183 64.944 76.0516 65.2373 76.7983 65.824C77.5556 66.4107 78.0516 67.2373 78.2863 68.304H75.3743C75.129 67.6213 74.6543 67.28 73.9503 67.28C73.449 67.28 73.049 67.4773 72.7503 67.872C72.4516 68.256 72.3023 68.8107 72.3023 69.536C72.3023 70.2613 72.4516 70.8213 72.7503 71.216C73.049 71.6 73.449 71.792 73.9503 71.792C74.6543 71.792 75.129 71.4507 75.3743 70.768H78.2863C78.0516 71.8133 77.5556 72.6347 76.7983 73.232C76.041 73.8293 75.1076 74.128 73.9983 74.128C73.1236 74.128 72.345 73.9413 71.6623 73.568C70.9903 73.1947 70.4623 72.6613 70.0783 71.968C69.705 71.2747 69.5183 70.464 69.5183 69.536ZM81.0298 74.128C80.5498 74.128 80.1551 73.9893 79.8458 73.712C79.5471 73.424 79.3978 73.072 79.3978 72.656C79.3978 72.2293 79.5471 71.872 79.8458 71.584C80.1551 71.296 80.5498 71.152 81.0298 71.152C81.4991 71.152 81.8831 71.296 82.1818 71.584C82.4911 71.872 82.6458 72.2293 82.6458 72.656C82.6458 73.072 82.4911 73.424 82.1818 73.712C81.8831 73.9893 81.4991 74.128 81.0298 74.128Z" fill="white"/>
</g>
<defs>
<filter id="filter0_d_2046_200" x="-4" y="0" width="108" height="108" filterUnits="userSpaceOnUse" color-interpolation-filters="sRGB">
<feFlood flood-opacity="0" result="BackgroundImageFix"/>
<feColorMatrix in="SourceAlpha" type="matrix" values="0 0 0 0 0 0 0 0 0 0 0 0 0 0 0 0 0 0 127 0" result="hardAlpha"/>
<feOffset dy="4"/>
<feGaussianBlur stdDeviation="2"/>
<feComposite in2="hardAlpha" operator="out"/>
<feColorMatrix type="matrix" values="0 0 0 0 0 0 0 0 0 0 0 0 0 0 0 0 0 0 0.25 0"/>
<feBlend mode="normal" in2="BackgroundImageFix" result="effect1_dropShadow_2046_200"/>
<feBlend mode="normal" in="SourceGraphic" in2="effect1_dropShadow_2046_200" result="shape"/>
</filter>
</defs>
</svg>
